PathFileType	4	(X/Y/Z)	C:/Users/Rosti/Documents/GitHub/TechForParalysis/Code/Model/04122019 - Marker Volunteer01/Rosti Data/New Session 103.trc	
DataRate	CameraRate	NumFrames	NumMarkers	Units	OrigDataRate	OrigDataStartFrame	OrigNumFrames	
100.00	100.00	26	14	m	100.00	466	620	
Frame#	Time	C7			PX			T8			IJ			SC			AC			AI			TS			AA			GH			LE			ME			US			RS			
		X1	Y1	Z1	X2	Y2	Z2	X3	Y3	Z3	X4	Y4	Z4	X5	Y5	Z5	X6	Y6	Z6	X7	Y7	Z7	X8	Y8	Z8	X9	Y9	Z9	X10	Y10	Z10	X11	Y11	Z11	X12	Y12	Z12	X13	Y13	Z13	X14	Y14	Z14	

466	4.65	0.0326569	0.10123	0.163567	-0.0054435	-0.14272	-0.067594	0.0263585	-0.11304	0.232056	0	0	0	0.0251679	0.00753	0.003963	0.1755836	0.03794	0.061452	0.1139386	0.02182	0.195806	0.1096191	-0.09608	0.229645	0.2281226	-0.00689	0.12873	0.2377136	0.00461	0.086967	0.2645346	-0.28508	0.008067	0.1758656	-0.30311	-0.01617	0.2839876	-0.544527	-0.099355	0.3473356	-0.508352	-0.123275
467	4.66	0.0325849	0.10123	0.163608	-0.0054111	-0.14268	-0.06764	0.0262928	-0.11306	0.232109	0	0	0	0.0251618	0.00754	0.00396	0.1755869	0.03796	0.061623	0.1137859	0.02178	0.195972	0.1094923	-0.09615	0.229747	0.2280549	-0.0069	0.128927	0.2377019	0.00463	0.0872	0.2644789	-0.28503	0.008136	0.1758989	-0.30306	-0.016143	0.2840409	-0.544452	-0.099433	0.3474639	-0.508284	-0.123198
468	4.67	0.0324986	0.10124	0.16366	-0.0053903	-0.14263	-0.067689	0.0262178	-0.11306	0.232161	0	0	0	0.0251678	0.00757	0.003963	0.1755836	0.038	0.061811	0.1136326	0.02174	0.196139	0.1093589	-0.09622	0.229847	0.2279736	-0.00691	0.129139	0.2376816	0.00465	0.087439	0.2644206	-0.28494	0.008166	0.1759606	-0.303	-0.016114	0.2840326	-0.544337	-0.099643	0.3476356	-0.508166	-0.12319
469	4.68	0.0324033	0.10123	0.16372	-0.0053792	-0.1426	-0.067737	0.026136	-0.11309	0.23221	0	0	0	0.0251871	0.00758	0.003975	0.1755714	0.03802	0.062009	0.1134924	0.02167	0.196297	0.1092195	-0.09631	0.229945	0.2278854	-0.00694	0.129363	0.2376584	0.00465	0.087685	0.2644174	-0.28487	0.008173	0.1760334	-0.30295	-0.016125	0.2840184	-0.544219	-0.09992	0.3478454	-0.508028	-0.123248
470	4.69	0.0323051	0.10122	0.163781	-0.0053754	-0.14258	-0.067782	0.0260506	-0.11312	0.232252	0	0	0	0.0252141	0.00759	0.00399	0.1755497	0.03804	0.062206	0.1133667	0.0216	0.196438	0.1090763	-0.09641	0.230037	0.2277987	-0.00697	0.12959	0.2376417	0.00467	0.087942	0.2645037	-0.28479	0.008171	0.1760977	-0.30288	-0.01623	0.2841077	-0.544082	-0.100171	0.3480897	-0.507849	-0.123362
471	4.7	0.0322087	0.10119	0.163838	-0.0053766	-0.14256	-0.067825	0.025966	-0.11316	0.232286	0	0	0	0.0252344	0.0076	0.004009	0.1755251	0.03805	0.062389	0.1132471	0.02152	0.196564	0.1089349	-0.0965	0.230124	0.2277141	-0.007	0.129804	0.2376331	0.00469	0.088209	0.2646251	-0.28473	0.008152	0.1761481	-0.30279	-0.016477	0.2843401	-0.543934	-0.100394	0.3483641	-0.507642	-0.123523
472	4.71	0.0321167	0.10115	0.163888	-0.0053818	-0.14256	-0.067869	0.0258874	-0.11321	0.23231	0	0	0	0.0252306	0.0076	0.004035	0.1755005	0.03805	0.062549	0.1131295	0.02143	0.196677	0.108804	-0.09659	0.230204	0.2276345	-0.00703	0.129996	0.2376335	0.00471	0.088475	0.2647185	-0.28466	0.008096	0.1762065	-0.30266	-0.016877	0.2846635	-0.543767	-0.100672	0.3486645	-0.507412	-0.123718
473	4.72	0.0320309	0.10112	0.163932	-0.0053894	-0.14254	-0.067911	0.0258198	-0.11325	0.232324	0	0	0	0.0251984	0.0076	0.004071	0.1754762	0.03806	0.062689	0.1130172	0.02137	0.196784	0.1086947	-0.09666	0.230278	0.2275742	-0.00702	0.130171	0.2376342	0.00476	0.08872	0.2648042	-0.28456	0.008006	0.1763052	-0.30249	-0.017383	0.2850052	-0.543563	-0.101052	0.3489882	-0.507147	-0.123939
474	4.73	0.0319523	0.10107	0.16397	-0.0053967	-0.14254	-0.067952	0.0257673	-0.1133	0.232329	0	0	0	0.0251515	0.00759	0.004108	0.1754517	0.03808	0.06281	0.1129207	0.02131	0.19688	0.1086158	-0.09673	0.230343	0.2275447	-0.007	0.130331	0.2376207	0.00479	0.088919	0.2649517	-0.28443	0.0079	0.1764657	-0.3023	-0.017913	0.2853347	-0.543336	-0.101485	0.3493317	-0.506875	-0.124187
475	4.74	0.0318813	0.10103	0.164008	-0.0053979	-0.14254	-0.067986	0.0257323	-0.11335	0.232329	0	0	0	0.0251145	0.00757	0.004135	0.1754303	0.03809	0.062918	0.1128483	0.02126	0.196967	0.1085717	-0.09679	0.2304	0.2275383	-0.00697	0.130476	0.2375913	0.00481	0.089078	0.2651833	-0.28429	0.007795	0.1766823	-0.30212	-0.018363	0.2856333	-0.543081	-0.101908	0.3496923	-0.506593	-0.124456
476	4.75	0.0318173	0.10099	0.164046	-0.0053878	-0.14254	-0.068013	0.0257152	-0.11341	0.232323	0	0	0	0.0251057	0.00755	0.004143	0.1754148	0.0381	0.063013	0.1127998	0.02121	0.19704	0.1085608	-0.09685	0.230444	0.2275298	-0.00694	0.130593	0.2375578	0.00484	0.089212	0.2654468	-0.28416	0.007684	0.1769448	-0.30198	-0.018655	0.2858988	-0.542809	-0.102321	0.3500658	-0.506305	-0.124742
477	4.76	0.0317601	0.10096	0.164083	-0.0053661	-0.14254	-0.068032	0.0257149	-0.11345	0.232315	0	0	0	0.0251153	0.00754	0.00415	0.175404	0.03814	0.063099	0.112773	0.02116	0.197101	0.1085776	-0.09689	0.230478	0.227507	-0.00692	0.130681	0.237529	0.00488	0.089335	0.265681	-0.28405	0.007564	0.177243	-0.30188	-0.018749	0.286167	-0.542527	-0.102737	0.35045	-0.506001	-0.125031
478	4.77	0.0317098	0.10093	0.164116	-0.0053378	-0.14253	-0.068049	0.0257289	-0.1135	0.232304	0	0	0	0.0251213	0.00752	0.004166	0.1753897	0.03817	0.063175	0.1127587	0.02111	0.197154	0.1086143	-0.09693	0.230499	0.2274747	-0.00692	0.130742	0.2375077	0.00493	0.089442	0.2658687	-0.28395	0.00743	0.1775647	-0.30183	-0.018669	0.2865107	-0.542257	-0.103143	0.3508367	-0.505692	-0.125321
479	4.78	0.0316677	0.10089	0.164146	-0.0053078	-0.14252	-0.068072	0.025754	-0.11354	0.232294	0	0	0	0.0251114	0.00751	0.004191	0.1753683	0.03822	0.063241	0.1127493	0.02107	0.197202	0.1086631	-0.09697	0.230511	0.2274503	-0.00691	0.130787	0.2374893	0.00498	0.089526	0.2660363	-0.28384	0.007281	0.1778823	-0.30182	-0.01851	0.2869753	-0.541995	-0.103503	0.3512123	-0.505383	-0.12561
480	4.79	0.0316348	0.10084	0.164172	-0.0052803	-0.14249	-0.068107	0.025787	-0.11358	0.232282	0	0	0	0.0250806	0.00751	0.004218	0.1753431	0.03829	0.063294	0.1127431	0.02104	0.197247	0.1087169	-0.097	0.230512	0.2274431	-0.00688	0.130819	0.2374681	0.00505	0.089574	0.2662121	-0.28371	0.007122	0.1781611	-0.3018	-0.018398	0.2875201	-0.541719	-0.10379	0.3515691	-0.505069	-0.125896
481	4.8	0.0316085	0.10079	0.1642	-0.0052575	-0.14246	-0.068153	0.0258248	-0.11362	0.232271	0	0	0	0.025041	0.00752	0.004236	0.1753228	0.03835	0.063332	0.1127378	0.02102	0.197288	0.1087714	-0.09704	0.230503	0.2274518	-0.00682	0.130842	0.2374438	0.00513	0.089589	0.2664028	-0.28355	0.006965	0.1783708	-0.30175	-0.018415	0.2880508	-0.54144	-0.10401	0.3519098	-0.504764	-0.126164
482	4.81	0.031582	0.10075	0.164233	-0.0052391	-0.14243	-0.068202	0.025865	-0.11366	0.23226	0	0	0	0.0250105	0.00754	0.004239	0.1753087	0.03842	0.063357	0.1127357	0.02101	0.197324	0.1088248	-0.09707	0.230487	0.2274677	-0.00675	0.130862	0.2374237	0.00521	0.089581	0.2665997	-0.28338	0.006827	0.1784937	-0.30165	-0.018581	0.2884857	-0.54118	-0.104216	0.3522467	-0.504467	-0.126402
483	4.82	0.0315511	0.1007	0.164274	-0.0052234	-0.14242	-0.068244	0.0259068	-0.1137	0.232252	0	0	0	0.0250012	0.00756	0.004228	0.1752975	0.03848	0.063371	0.1127385	0.02099	0.197355	0.1088766	-0.0971	0.230468	0.2274865	-0.00667	0.130877	0.2374095	0.00529	0.089566	0.2667845	-0.28321	0.006719	0.1785335	-0.3015	-0.018861	0.2887815	-0.540961	-0.104482	0.3525835	-0.504183	-0.126606
484	4.83	0.0315173	0.10067	0.164316	-0.0052112	-0.14241	-0.068273	0.0259506	-0.11374	0.232246	0	0	0	0.025015	0.00759	0.004212	0.1752852	0.03853	0.063378	0.1127462	0.02098	0.19738	0.1089285	-0.09714	0.230448	0.2275032	-0.00661	0.130879	0.2374022	0.00537	0.089556	0.2669402	-0.28305	0.00664	0.1785222	-0.30133	-0.01919	0.2889662	-0.540778	-0.104818	0.3529072	-0.503918	-0.126795
485	4.84	0.0314842	0.10064	0.164359	-0.0052046	-0.1424	-0.068289	0.0259982	-0.11378	0.232241	0	0	0	0.0250402	0.00762	0.004201	0.1752748	0.03858	0.063382	0.1127588	0.02096	0.197402	0.1089831	-0.09717	0.230427	0.2275158	-0.00656	0.130866	0.2374008	0.00545	0.089553	0.2670628	-0.28292	0.006585	0.1785098	-0.30117	-0.019495	0.2891288	-0.54061	-0.105161	0.3532028	-0.503678	-0.126983
486	4.85	0.0314558	0.10061	0.164403	-0.0052048	-0.14238	-0.068301	0.0260519	-0.11382	0.232236	0	0	0	0.0250554	0.00766	0.004202	0.1752691	0.03862	0.063382	0.1127731	0.02095	0.19742	0.1090435	-0.0972	0.230402	0.2275271	-0.00651	0.130844	0.2374051	0.00553	0.089554	0.2671581	-0.28281	0.00654	0.1785331	-0.30104	-0.019728	0.2893331	-0.54045	-0.105458	0.3534631	-0.50346	-0.127171
487	4.86	0.0314362	0.10058	0.164448	-0.00521	-0.14236	-0.068322	0.0261141	-0.11388	0.23223	0	0	0	0.0250514	0.00769	0.004213	0.175268	0.03865	0.063376	0.112791	0.02092	0.197432	0.1091109	-0.09724	0.230372	0.22754	-0.00648	0.130819	0.237412	0.00559	0.08955	0.267238	-0.28273	0.006491	0.17861	-0.30097	-0.019868	0.289592	-0.540313	-0.105681	0.353691	-0.50327	-0.127348
488	4.87	0.0314283	0.10056	0.164493	-0.0052148	-0.14233	-0.068354	0.0261872	-0.11393	0.232221	0	0	0	0.0250395	0.00772	0.004223	0.175271	0.03868	0.063363	0.112814	0.02089	0.197439	0.109186	-0.09728	0.230338	0.22756	-0.00645	0.130796	0.237423	0.00564	0.089537	0.267316	-0.28266	0.006436	0.178739	-0.30096	-0.019914	0.289892	-0.54019	-0.105824	0.353894	-0.503101	-0.127505
489	4.88	0.0314327	0.10054	0.164535	-0.0052121	-0.1423	-0.068398	0.0262725	-0.11398	0.232208	0	0	0	0.0250383	0.00774	0.004224	0.1752818	0.03872	0.063344	0.1128468	0.02085	0.19744	0.1092689	-0.09733	0.230299	0.2275888	-0.00643	0.13077	0.2374428	0.00568	0.089513	0.2673978	-0.2826	0.006379	0.1788988	-0.301	-0.019885	0.2902078	-0.540077	-0.10592	0.3540798	-0.502955	-0.127638
490	4.89	0.0314511	0.10051	0.16457	-0.0051969	-0.14229	-0.068448	0.0263701	-0.11405	0.232191	0	0	0	0.0250542	0.00775	0.004213	0.1753117	0.03873	0.063323	0.1128977	0.02079	0.197436	0.1093598	-0.09739	0.230258	0.2276257	-0.00642	0.130736	0.2374757	0.00568	0.089481	0.2674767	-0.28257	0.006328	0.1790567	-0.30108	-0.019818	0.2904887	-0.539992	-0.106025	0.3542527	-0.502847	-0.127749
491	4.9	0.0314849	0.10047	0.164594	-0.0051681	-0.14228	-0.068501	0.0264784	-0.11411	0.232168	0	0	0	0.0250812	0.00774	0.004195	0.1753635	0.03874	0.063301	0.1129665	0.02074	0.197428	0.109458	-0.09745	0.230217	0.2276715	-0.00643	0.130694	0.2375235	0.00569	0.089448	0.2675485	-0.28254	0.006288	0.1791755	-0.30114	-0.019767	0.2906955	-0.539925	-0.106162	0.3544115	-0.502764	-0.127845
